# xmcd
#
# Track frame offsets:
#	150
#	13910
#	24598
#	35905
#	43328
#	55143
#	65725
#	75901
#	86941
#	99169
#	110386
#	121234
#	133326
#	142597
#
# Disc length: 2038 seconds
#
# Revision: 0
# Processed by: cddbd v1.4PL0 Copyright (c) Steve Scherf et al.
# Submitted via: dBpowerAMP V4.0
#
DISCID=be07f40e
DTITLE=Johnnie Lee Wills and All The Boys - Where There's A Wills There's A Way
DYEAR=1900
DGENRE=Country
TTITLE0=Rag Mop
TTITLE1=Lazy John
TTITLE2=Sugar In My Coffee
TTITLE3=Baby, It Must Be Love
TTITLE4=Eyes Of My Heart
TTITLE5=Ridin' For The Rancho
TTITLE6=Your Love For Me Is Closing Light
TTITLE7=Blub Twist
TTITLE8=Milk Cow
TTITLE9=I Wish Your Picture Was You
TTITLE10=Travelin'
TTITLE11=I Wish You Could Learn To Love Me
TTITLE12=Are You Really Worth It All
TTITLE13=Dance Toward The Door
EXTD=
EXTT0=
EXTT1=
EXTT2=
EXTT3=
EXTT4=
EXTT5=
EXTT6=
EXTT7=
EXTT8=
EXTT9=
EXTT10=
EXTT11=
EXTT12=
EXTT13=
PLAYORDER=
